<?xml version="1.0" encoding="utf-8"?>
<!-- Generator: Adobe Illustrator 27.5.0, SVG Export Plug-In . SVG Version: 6.00 Build 0)  -->
<svg version="1.1" id="Layer_1" xmlns="http://www.w3.org/2000/svg" xmlns:xlink="http://www.w3.org/1999/xlink" x="0px" y="0px"
	 viewBox="0 0 448 512" style="enable-background:new 0 0 448 512;" xml:space="preserve">
<style type="text/css">
	.st0{fill:#FFFFFF;}
</style>
<g>
	<path class="st0" d="M446.6,163.5c-1.7-35.9-9.9-67.7-36.2-93.9c-26.2-26.2-58-34.4-93.9-36.2c-37-2.1-147.9-2.1-184.9,0
		C95.8,35.1,64,43.3,37.7,69.5s-34.4,58-36.2,93.9c-2.1,37-2.1,147.9,0,184.9c1.7,35.9,9.9,67.7,36.2,93.9
		c26.3,26.2,58,34.4,93.9,36.2c37,2.1,147.9,2.1,184.9,0c35.9-1.7,67.7-9.9,93.9-36.2c26.2-26.2,34.4-58,36.2-93.9
		C448.7,311.3,448.7,200.5,446.6,163.5z M224,370.9c-63.6,0-114.9-51.3-114.9-114.9S160.4,141.1,224,141.1S338.9,192.4,338.9,256
		S287.6,370.9,224,370.9z M343.7,163.1c-14.9,0-26.8-12-26.8-26.8s12-26.8,26.8-26.8s26.8,12,26.8,26.8
		C370.5,151.2,358.5,163.1,343.7,163.1z"/>
	<circle class="st0" cx="224" cy="256" r="74.7"/>
</g>
</svg>
